<?xml version="1.0" encoding="UTF-8"?>
<!DOCTYPE svg PUBLIC "-//W3C//DTD SVG 1.0//EN" "http://www.w3.org/TR/2001/REC-SVG-20010904/DTD/svg10.dtd">
<!-- Creator: CorelDRAW 2021 (64-Bit) -->
<svg xmlns="http://www.w3.org/2000/svg" xml:space="preserve" width="128px" height="128px" version="1.0" shape-rendering="geometricPrecision" text-rendering="geometricPrecision" image-rendering="optimizeQuality" fill-rule="evenodd" clip-rule="evenodd"
viewBox="0 0 128 128"
 xmlns:xlink="http://www.w3.org/1999/xlink"
 xmlns:xodm="http://www.corel.com/coreldraw/odm/2003">
 <g id="Layer_x0020_1">
  <metadata id="CorelCorpID_0Corel-Layer"/>
  <g id="_1702209308944">
   <path fill="#363D52" fill-rule="nonzero" d="M16 2l96 0c7.73,0 14,6.27 14,14l0 96c0,7.73 -6.27,14 -14,14l-96 0c-7.73,0 -14,-6.27 -14,-14l0 -96c0,-7.73 6.27,-14 14,-14z"/>
   <path fill="#212532" fill-rule="nonzero" d="M16 0l96 0c4.42,0 8.42,1.79 11.31,4.69 2.9,2.89 4.69,6.89 4.69,11.31l0 96c0,4.42 -1.79,8.42 -4.69,11.31 -2.89,2.9 -6.89,4.69 -11.31,4.69l0 -0.01 -96 0c-4.42,0 -8.42,-1.79 -11.31,-4.68 -2.9,-2.89 -4.69,-6.89 -4.69,-11.31l0.01 0 0 -96c0,-4.42 1.79,-8.42 4.68,-11.31 2.89,-2.9 6.89,-4.69 11.31,-4.69zm96 4l-96 0c-3.31,0 -6.31,1.34 -8.49,3.51 -2.17,2.18 -3.52,5.18 -3.52,8.49l0 96 0.01 0c0,3.31 1.34,6.31 3.51,8.49 2.18,2.17 5.18,3.52 8.49,3.52l96 0 0 -0.01c3.31,0 6.31,-1.34 8.49,-3.51 2.17,-2.18 3.51,-5.18 3.51,-8.49l0 -96c0,-3.31 -1.34,-6.31 -3.51,-8.49 -2.18,-2.17 -5.18,-3.51 -8.49,-3.51z"/>
   <path fill="#478CBF" fill-rule="nonzero" d="M22.93 83.63l0 3.94c0,27.87 82.11,27.87 82.21,0l0 -3.94 -13.53 1.21 -0.51 6.97c-0.13,0.67 -0.6,1.11 -1.41,1.31l-16.36 1.11c-0.81,0 -1.35,-0.37 -1.62,-1.11l-1.01 -6.56 -13.33 0 -1.01 6.56c-0.27,0.74 -0.81,1.11 -1.62,1.11l-16.36 -1.11c-0.81,-0.2 -1.28,-0.64 -1.41,-1.31l-0.51 -6.97 -13.53 -1.21z"/>
   <path fill="#478CBF" fill-rule="nonzero" d="M25.81 79.18c0,0.46 0.34,0.81 0.84,0.81 3.31,0.12 6.72,0.23 10.07,0.23 3.28,0 5.01,-0.08 8.17,-0.23 0.71,-3.59 1.34,-7.22 1.88,-10.86l9.18 0c0.56,3.33 1.15,6.62 1.8,9.87 0.09,0.54 0.61,0.96 1.15,0.99 3.38,0.21 6.34,0.23 9.71,0.23 3.28,0 5.47,-0.08 8.58,-0.23 -2.9,-19.18 -7.53,-39.37 -11.27,-58.27 -0.1,-0.55 -0.61,-0.99 -1.15,-0.99 -4.72,-0.17 -9.32,-0.23 -14.13,-0.23 -4.63,0 -9.16,0.01 -13.56,0.23 -3.66,18.19 -7.86,37.29 -10.79,55.35 -0.15,1.01 -0.48,2.87 -0.48,3.1l0 0zm22.64 -22.89c0.86,-7.41 1.58,-14.85 2.49,-22.16 1.02,7.35 1.99,14.78 3.05,22.16l-5.54 0z"/>
   <path id="_1" fill="#478CBF" fill-rule="nonzero" d="M80.78 50.36c0,9.87 0.2,19.36 0.4,28.64 0,0.54 0.45,0.99 0.99,0.99 3.36,0.12 6.79,0.23 10.15,0.23 3.28,0 5.49,-0.08 8.64,-0.23 0.24,-9.87 0.39,-19.76 0.39,-29.63 0,-9.87 -0.2,-19.37 -0.39,-28.64 0,-0.55 -0.45,-0.99 -0.99,-0.99 -3.36,-0.12 -6.79,-0.23 -10.15,-0.23 -3.28,0 -5.49,0.08 -8.64,0.23 -0.25,9.87 -0.4,19.76 -0.4,29.63z"/>
  </g>
 </g>
</svg>
